<svg xmlns="http://www.w3.org/2000/svg" xmlns:xlink="http://www.w3.org/1999/xlink" width="1024" zoomAndPan="magnify" viewBox="0 0 768 767.999994" height="1024" preserveAspectRatio="xMidYMid meet" version="1.0"><defs><g/><clipPath id="b66a69cd44"><path d="M 0 0 L 766 0 L 766 766 L 0 766 Z M 0 0 " clip-rule="nonzero"/></clipPath><clipPath id="392cc31e89"><rect x="0" width="768" y="0" height="768"/></clipPath><clipPath id="52136b0a56"><path d="M 62.96875 148.730469 L 692.832031 148.730469 L 692.832031 606.925781 L 62.96875 606.925781 Z M 62.96875 148.730469 " clip-rule="nonzero"/></clipPath><clipPath id="8ceae7a67c"><path d="M 0.96875 0.730469 L 630.832031 0.730469 L 630.832031 458.925781 L 0.96875 458.925781 Z M 0.96875 0.730469 " clip-rule="nonzero"/></clipPath><clipPath id="112cfafbfc"><rect x="0" width="631" y="0" height="459"/></clipPath><clipPath id="e8e8ebe0c0"><path d="M 146.09375 66.511719 L 609.703125 66.511719 L 609.703125 696.378906 L 146.09375 696.378906 Z M 146.09375 66.511719 " clip-rule="nonzero"/></clipPath><clipPath id="8cea984df8"><path d="M 0.09375 0.511719 L 463.703125 0.511719 L 463.703125 630.378906 L 0.09375 630.378906 Z M 0.09375 0.511719 " clip-rule="nonzero"/></clipPath><clipPath id="c30411c00a"><rect x="0" width="464" y="0" height="631"/></clipPath></defs><g transform="matrix(1, 0, 0, 1, 0, -0.000000000000057351)"><g clip-path="url(#392cc31e89)"><g clip-path="url(#b66a69cd44)"><g fill="#ffffff" fill-opacity="1"><g transform="translate(-85.355383, 765.017611)"><g><path d="M 695.84375 -154.625 L 695.84375 0 L 231.953125 0 L 231.953125 -154.625 Z M 77.3125 -154.625 L 77.3125 -618.53125 L 231.953125 -618.53125 L 231.953125 -154.625 Z M 231.953125 -618.53125 L 231.953125 -773.15625 L 695.84375 -773.15625 L 695.84375 -618.53125 Z M 695.84375 -154.625 L 695.84375 -618.53125 L 850.484375 -618.53125 L 850.484375 -154.625 Z M 695.84375 -154.625 "/></g></g></g></g></g></g><g clip-path="url(#52136b0a56)"><g transform="matrix(1, 0, 0, 1, 62, 148)"><g clip-path="url(#112cfafbfc)"><g clip-path="url(#8ceae7a67c)"><path fill="#ffffff" d="M 630.832031 0.730469 L 630.832031 458.925781 L 0.8125 458.925781 L 0.8125 0.730469 Z M 630.832031 0.730469 " fill-opacity="1" fill-rule="nonzero"/></g></g></g></g><g clip-path="url(#e8e8ebe0c0)"><g transform="matrix(1, 0, 0, 1, 146, 66)"><g clip-path="url(#c30411c00a)"><g clip-path="url(#8cea984df8)"><path fill="#ffffff" d="M 0.09375 0.511719 L 463.703125 0.511719 L 463.703125 630.734375 L 0.09375 630.734375 Z M 0.09375 0.511719 " fill-opacity="1" fill-rule="nonzero"/></g></g></g></g></svg>